#!OML:ASF H:\ManfredETheater\Project 1\Capture day 1\Session 1\subject.ASF
:FULLY-SPECIFIED
:DEGREES
234
root -3.03412 13.2726 -0.0381337 -123.079 9.81833 161.573
lowerback 49.0024 -2.28452 5.77278
upperback 11.7583 -3.97696 -0.773374
thorax -7.38222 -2.92002 -1.73098
lowerneck 5.20074 -9.46111 -0.725686
upperneck -27.1006 -12.0268 8.08348
head -8.73812 -7.21191 4.00461
rclavicle -2.8625e-014 -3.65764e-014
rhumerus 51.0972 -21.9762 -69.3308
rradius 47.2907
rwrist 2.65021
rhand -63.836 -12.2539
rfingers 7.12502
rthumb -35.7955 -38.6204
lclavicle -2.8625e-014 -3.65764e-014
lhumerus 73.4672 15.3755 34.5712
lradius 57.9658
lwrist -2.69528
lhand -36.0681 -7.05334
lfingers 7.12502
lthumb -9.17556 22.727
rfemur -34.13 -12.373 37.6913
rtibia 56.7355
rfoot -2.53042 9.1527
rtoes -43.9548
lfemur -108.627 0.724763 -31.0668
ltibia 86.7809
lfoot -32.9337 -12.3873
ltoes -7.70462
235
root -2.86435 13.3356 -0.490223 -122.91 9.10677 161.716
lowerback 50.0454 -2.6583 5.71856
upperback 11.3394 -4.30791 -0.39812
thorax -7.97482 -3.08945 -1.10337
lowerneck 4.81372 -8.98508 -0.908696
upperneck -27.6381 -11.6022 7.72267
head -8.89 -7.0288 3.90689
rclavicle 3.33958e-014 -3.73715e-014
rhumerus 48.8023 -19.088 -67.5206
rradius 47.564
rwrist 1.04695
rhand -65.3729 -13.3994
rfingers 7.12502
rthumb -37.2503 -39.3988
lclavicle 3.33958e-014 -3.73715e-014
lhumerus 77.7323 15.8307 37.5491
lradius 53.4489
lwrist -3.90392
lhand -35.8364 -6.13556
lfingers 7.12502
lthumb -8.95196 23.6545
rfemur -35.1536 -14.2633 38.1894
rtibia 61.1782
rfoot -3.2071 7.79468
rtoes -43.4626
lfemur -106.247 0.850927 -29.6215
ltibia 86.405
lfoot -34.6977 -11.3304
ltoes -9.93321
236
root -2.70409 13.4122 -0.937625 -122.6 8.73083 162.162
lowerback 50.8761 -2.74161 5.46267
upperback 10.9835 -4.39921 0.0237386
thorax -8.44562 -3.15012 -0.4426
lowerneck 4.40241 -8.51391 -1.15257
upperneck -28.2735 -11.2144 7.33068
head -9.06959 -6.86638 3.81749
rclavicle -9.54166e-015 4.45278e-014
rhumerus 47.178 -16.2088 -65.8749
rradius 47.2467
rwrist -0.221168
rhand -66.8264 -16.0598
rfingers 7.12502
rthumb -38.6231 -41.6867
lclavicle -9.54166e-015 4.45278e-014
lhumerus 82.0647 15.7322 41.3576
lradius 48.9434
lwrist -5.18179
lhand -35.6601 -5.04115
lfingers 7.12502
lthumb -8.78181 24.7561
rfemur -36.5644 -15.6471 38.3261
rtibia 66.1977
rfoot -3.81705 6.18366
rtoes -42.9613
lfemur -103.996 1.2045 -28.1446
ltibia 85.9128
lfoot -36.1591 -10.0109
ltoes -12.7028
237
root -2.55152 13.4982 -1.37988 -122.032 8.76539 162.936
lowerback 51.3225 -2.4909 4.9422
upperback 10.7154 -4.24598 0.444552
thorax -8.76228 -3.09707 0.214268
lowerneck 3.99541 -8.05321 -1.43436
upperneck -28.9923 -10.8642 6.91377
head -9.27966 -6.72552 3.73588
rclavicle -4.92986e-014 -1.59028e-015
rhumerus 46.1798 -13.4779 -64.6785
rradius 46.3986
rwrist -0.978949
rhand -68.0996 -20.0649
rfingers 7.12502
rthumb -39.8229 -45.3441
lclavicle -4.92986e-014 -1.59028e-015
lhumerus 86.2518 15.0084 45.7985
lradius 44.6569
lwrist -6.39248
lhand -35.5028 -3.89282
lfingers 7.12502
lthumb -8.62998 25.9108
rfemur -38.4451 -16.4093 38.0776
rtibia 71.6194
rfoot -4.34033 4.55279
rtoes -42.417
lfemur -102.007 1.84307 -26.6911
ltibia 85.332
lfoot -37.2913 -8.53582
ltoes -15.7938
238
root -2.40546 13.5904 -1.81721 -121.158 9.21197 164.025
lowerback 51.5578 -5.07825 0.203756
upperback 10.6126 -2.03377 0.229758
thorax -8.88279 0.326315 0.839253
lowerneck 3.58537 -7.60914 -1.8199
upperneck -29.6976 -10.5409 6.54524
head -9.47611 -6.5945 3.68792
rclavicle 6.04305e-014 3.49861e-014
rhumerus 45.6849 -11.0111 -64.0833
rradius 45.1162
rwrist -1.06585
rhand -69.0493 -25.964
rfingers 7.12502
rthumb -40.7161 -50.97
lclavicle 6.04305e-014 3.49861e-014
lhumerus 90.0181 13.6698 50.5171
lradius 40.7786
lwrist -7.29364
lhand -35.2893 -2.89344
lfingers 7.12502
lthumb -8.42395 26.9186
rfemur -40.8307 -16.5665 37.4531
rtibia 77.2628
rfoot -4.82672 3.24347
rtoes -41.6136
lfemur -100.31 2.76695 -25.2906
ltibia 84.6805
lfoot -38.0793 -7.04864
ltoes -18.9115
239
root -2.26527 13.6856 -2.24919 -119.951 10.0184 165.394
lowerback 50.9857 -4.18695 -0.636582
upperback 10.5361 -1.53394 0.598566
thorax -8.87766 0.467472 1.41987
lowerneck 3.19692 -7.19284 -2.25747
upperneck -30.3827 -10.2559 6.19874
head -9.6666 -6.47818 3.65907
rclavicle -1.27222e-014 9.93923e-015
rhumerus 45.5526 -8.87577 -64.0829
rradius 43.4717
rwrist -0.492746
rhand -69.6256 -33.218
rfingers 7.12502
rthumb -41.2575 -58.052
lclavicle -1.27222e-014 9.93923e-015
lhumerus 93.1211 11.8582 55.0346
lradius 37.443
lwrist -7.55979
lhand -35.3655 -2.24823
lfingers 7.12502
lthumb -8.4975 27.5608
rfemur -43.7736 -16.2158 36.5029
rtibia 82.9559
rfoot -5.34194 2.17433
rtoes -40.6989
lfemur -98.9082 3.92957 -23.9657
ltibia 83.9599
lfoot -38.5472 -5.54393
ltoes -22.0424
240
root -2.13093 13.7819 -2.67663 -118.484 11.0724 166.968
lowerback 50.0137 -3.1499 -1.55127
upperback 10.5067 -0.916179 0.926496
thorax -8.77501 0.655682 1.94715
lowerneck 2.83367 -8.79423 -2.77736
upperneck -31.0519 -10.1749 7.06234
head -9.70266 -3.92515 3.60399
rclavicle -3.57812e-014 2.54444e-014
rhumerus 45.6487 -7.05545 -64.5431
rradius 41.5579
rwrist 0.624404
rhand -69.828 -40.6006
rfingers 7.12502
rthumb -41.4474 -65.3731
lclavicle -3.57812e-014 2.54444e-014
lhumerus 95.4641 9.81942 59.046
lradius 34.5845
lwrist -7.44839
lhand -35.6317 -2.04727
lfingers 7.12502
lthumb -8.75439 27.7512
rfemur -47.2251 -15.5878 35.2853
rtibia 88.5273
rfoot -5.94139 1.2676
rtoes -39.6934
lfemur -97.6826 5.23277 -22.7018
ltibia 83.1665
lfoot -38.7339 -4.07825
ltoes -24.9406
241
root -2.00128 13.8796 -3.10113 -116.856 12.2546 168.662
lowerback 48.7843 -2.08419 -2.44453
upperback 10.5116 -0.23792 1.2132
thorax -8.60064 0.872983 2.40457
lowerneck 2.4281 -8.62538 -3.27097
upperneck -31.6706 -9.93871 6.84875
head -9.85213 -3.64539 3.58889
rclavicle -5.1684e-014 9.14409e-015
rhumerus 45.8812 -5.4856 -65.2515
rradius 39.4581
rwrist 2.08256
rhand -69.6887 -46.7162
rfingers 7.12502
rthumb -41.3167 -71.5311
lclavicle -5.1684e-014 9.14409e-015
lhumerus 97.0253 7.8238 62.1739
lradius 32.0987
lwrist -7.00131
lhand -36.7567 -2.00133
lfingers 7.12502
lthumb -9.83989 27.7487
rfemur -51.0998 -14.9325 33.8698
rtibia 93.8085
rfoot -6.62169 0.419185
rtoes -38.5568
lfemur -96.5118 6.56534 -21.4769
ltibia 82.2782
lfoot -38.6507 -2.73521
ltoes -27.4763
242
root -1.87401 13.9791 -3.52431 -115.182 13.4799 170.417
lowerback 46.5874 -1.11277 -3.28718
upperback 11.4439 0.472412 1.39812
thorax -8.42313 1.10918 2.82863
lowerneck 2.02428 -8.47145 -3.79359
upperneck -32.2454 -9.72149 6.66697
head -9.98418 -3.37629 3.58918
rclavicle -2.62396e-014 3.26007e-014
rhumerus 46.1771 -4.02664 -65.9658
rradius 37.2495
rwrist 3.5815
rhand -69.2943 -50.6984
rfingers 7.12502
rthumb -40.9464 -75.6318
lclavicle -2.62396e-014 3.26007e-014
lhumerus 97.9119 6.07829 64.4901
lradius 29.7913
lwrist -7.10313
lhand -38.7452 -1.95174
lfingers 7.12502
lthumb -11.7579 27.6982
rfemur -55.3061 -14.4642 32.3617
rtibia 98.6548
rfoot -7.29458 -0.451884
rtoes -37.1543
lfemur -95.2416 7.85212 -20.264
ltibia 81.2704
lfoot -38.3551 -1.49505
ltoes -29.7413
243
root -1.74657 14.0813 -3.94841 -113.585 14.6804 172.174
lowerback 45.3656 -0.20028 -4.01
upperback 11.4299 1.13409 1.5956
thorax -8.17357 1.33937 3.14571
lowerneck 1.58658 -8.32107 -4.31817
upperneck -32.7408 -9.50258 6.50839
head -10.0819 -3.11412 3.59336
rclavicle 3.97569e-015 1.82882e-014
rhumerus 46.5016 -2.55825 -66.4759
rradius 35.009
rwrist 4.87236
rhand -68.6652 -52.2836
rfingers 7.12502
rthumb -40.3551 -77.4015
lclavicle 3.97569e-015 1.82882e-014
lhumerus 98.2417 4.69025 66.1895
lradius 27.5621
lwrist -8.32922
lhand -41.5867 -1.5983
lfingers 7.12502
lthumb -14.4969 27.8752
rfemur -59.7139 -14.3358 30.8749
rtibia 102.937
rfoot -7.95318 -1.45246
rtoes -35.6077
lfemur -93.728 9.02668 -19.0422
ltibia 80.1075
lfoot -37.8705 -0.340647
ltoes -31.7855
244
root -1.61556 14.1903 -4.37706 -112.181 15.812 173.867
lowerback 44.3227 0.567245 -4.6068
upperback 11.4392 1.71779 1.73563
thorax -7.9367 1.54813 3.37591
lowerneck 1.26347 -8.14235 -4.8154
upperneck -33.2349 -9.23625 6.41559
head -10.2041 -2.84835 3.62097
rclavicle 3.18055e-015 3.97569e-015
rhumerus 46.7973 -0.933154 -66.6648
rradius 32.8095
rwrist 5.78347
rhand -67.8189 -51.9095
rfingers 7.12502
rthumb -39.5587 -77.2671
lclavicle 3.18055e-015 3.97569e-015
lhumerus 97.9553 3.75012 67.3257
lradius 25.5757
lwrist -10.6615
lhand -45.114 -0.569819
lfingers 7.12502
lthumb -17.8933 28.627
rfemur -64.2154 -14.6558 29.543
rtibia 106.548
rfoot -8.48721 -2.60454
rtoes -33.8488
lfemur -91.8318 9.99366 -17.7619
ltibia 78.734
lfoot -37.1989 0.634486
ltoes -33.5123
